<?xml version="1.0" encoding="UTF-8" standalone="no"?>
<!-- Created with Inkscape (http://www.inkscape.org/) -->

<svg
   version="1.1"
   id="svg1"
   width="1122.528"
   height="793.72803"
   viewBox="0 0 1122.528 793.72803"
   sodipodi:docname="Example_PCB-F_Cu.svg"
   inkscape:version="1.4.2 (f4327f4, 2025-05-13)"
   xmlns:inkscape="http://www.inkscape.org/namespaces/inkscape"
   xmlns:sodipodi="http://sodipodi.sourceforge.net/DTD/sodipodi-0.dtd"
   xmlns="http://www.w3.org/2000/svg"
   xmlns:svg="http://www.w3.org/2000/svg">
  <defs
     id="defs1" />
  <sodipodi:namedview
     id="namedview1"
     pagecolor="#ffffff"
     bordercolor="#000000"
     borderopacity="0.25"
     inkscape:showpageshadow="2"
     inkscape:pageopacity="0.0"
     inkscape:pagecheckerboard="0"
     inkscape:deskcolor="#d1d1d1"
     inkscape:zoom="16.428801"
     inkscape:cx="513.39717"
     inkscape:cy="307.78265"
     inkscape:window-width="1920"
     inkscape:window-height="1017"
     inkscape:window-x="-8"
     inkscape:window-y="-8"
     inkscape:window-maximized="1"
     inkscape:current-layer="g1">
    <inkscape:page
       x="0"
       y="0"
       inkscape:label="1"
       id="page1"
       width="1122.528"
       height="793.72803"
       margin="0"
       bleed="0" />
  </sodipodi:namedview>
  <g
     id="g1"
     inkscape:groupmode="layer"
     inkscape:label="1">
    <path
       id="path1"
       style="fill:#000000;fill-opacity:1;fill-rule:nonzero;stroke:none;stroke-width:0.0096"
       d="M 493.76758 289.00391 L 493.76758 317.73438 L 539.7832 317.73438 L 539.7832 289.00391 L 493.76758 289.00391 z M 501.24023 291.16406 C 503.32631 291.16406 505.01953 292.85728 505.01953 294.94336 C 505.01953 295.76569 504.75559 296.52762 504.30859 297.14844 L 505.66797 298.50781 L 505.73242 298.43945 L 506.24609 297.65234 L 506.62305 296.79102 L 506.85352 295.88086 L 506.87891 295.58984 L 506.93164 294.94336 L 506.85352 294.00781 L 506.67383 293.29688 L 506.62305 293.0957 L 506.62109 293.0918 L 506.62109 293.08789 L 506.61914 293.07812 L 506.62109 293.07617 L 506.60938 292.82617 L 506.74219 292.59961 L 506.97656 292.47852 L 507.06445 292.4707 L 519.00586 292.4707 L 519.25977 292.54492 L 519.43164 292.74414 L 519.46875 293.00586 L 519.35938 293.24609 L 519.24414 293.3418 L 519.14453 293.40234 L 518.86914 293.56445 L 518.4375 293.99609 L 518.125 294.52344 L 517.95508 295.10938 L 517.94336 295.24805 L 517.94336 297.02148 L 517.95508 297.1582 L 518.125 297.74609 L 518.41406 298.23438 L 518.48047 298.47266 L 518.48047 298.87305 L 518.40625 299.125 L 518.29297 299.24805 L 518.1875 299.32617 L 517.93945 299.41797 L 517.68164 299.36133 L 517.625 299.32617 L 517.33594 299.10742 L 516.82617 298.91797 L 516.60156 298.89453 L 515.44531 298.89453 L 515.44531 301.4668 L 515.39648 301.63477 A 0.94488003 0.94488003 0 0 1 515.44531 301.93555 A 0.94488003 0.94488003 0 0 1 514.5 302.88086 L 511.26367 302.88086 L 510.69141 302.88086 L 510.69141 303.26953 L 510.71484 303.49414 L 510.74219 303.56445 L 510.75977 303.82812 L 510.74219 303.89258 L 510.71289 303.96875 L 510.68945 304.19336 L 510.68945 306.85938 L 510.71289 307.08398 L 510.90234 307.59375 L 511.01367 307.74219 L 511.10547 307.99023 L 511.04883 308.24805 L 510.86328 308.43359 L 510.63867 308.49219 L 509.65039 308.49219 L 509.51367 308.50195 L 508.92773 308.67383 L 508.91211 308.67969 L 508.72461 308.71875 L 508.60547 308.71875 L 508.35352 308.64453 L 508.21289 308.50586 L 508.16602 308.43359 L 507.84766 307.94531 L 507.21094 307.25391 L 506.4707 306.67773 L 505.64258 306.23047 L 504.75391 305.92578 L 503.82812 305.76953 L 502.88672 305.76953 L 501.96094 305.92578 L 501.07227 306.23047 L 500.24414 306.67773 L 499.50391 307.25391 L 498.86719 307.94531 L 498.35352 308.73242 L 498.05859 309.40234 L 497.88867 309.60547 L 497.63672 309.68359 L 497.38281 309.61328 L 497.20703 309.41602 L 497.16016 309.21484 L 497.16016 299.91406 L 497.23438 299.66016 L 497.43555 299.48633 L 497.69531 299.44922 L 497.91797 299.54297 L 498.12891 299.70703 L 498.95508 300.1543 L 499.84375 300.46094 L 500.77148 300.61523 L 501.71094 300.61523 L 501.78125 300.60352 L 502.63867 300.46094 L 503.52734 300.1543 L 504.25 299.76172 L 502.85156 298.36328 C 502.36273 298.59431 501.81636 298.72461 501.24023 298.72461 C 499.15511 298.72461 497.46094 297.02848 497.46094 294.94336 C 497.46094 292.85728 499.15511 291.16406 501.24023 291.16406 z M 531.47656 292.24219 C 531.60694 292.24219 531.73629 292.24922 531.86328 292.26172 C 531.99028 292.27462 532.11531 292.29316 532.23828 292.31836 C 533.95993 292.67102 535.25586 294.19616 535.25586 296.02148 C 535.25586 296.06328 535.25531 296.10498 535.25391 296.14648 C 535.25381 296.14948 535.25404 296.15225 535.25391 296.15625 C 535.21681 297.21304 534.74526 298.16038 534.01172 298.82422 C 534.00672 298.82922 534.00129 298.83319 533.99609 298.83789 C 533.91909 298.90679 533.83836 298.97263 533.75586 299.03516 C 533.74986 299.03916 533.74388 299.04317 533.73828 299.04688 C 533.39135 299.30642 532.99667 299.51002 532.57227 299.63867 L 532.57031 299.63867 C 532.55631 299.64267 532.54144 299.64639 532.52734 299.65039 C 532.37365 299.69499 532.21573 299.72909 532.05469 299.75391 C 532.00241 299.76176 531.95111 299.77345 531.89844 299.7793 C 531.94419 299.7741 531.98819 299.76349 532.0332 299.75586 C 531.98429 299.76391 531.9364 299.77378 531.88672 299.7793 C 531.88272 299.77975 531.8787 299.78025 531.875 299.78125 L 531.875 299.7793 C 531.74372 299.7932 531.61153 299.80273 531.47656 299.80273 C 529.81171 299.80273 528.39758 298.72143 527.89453 297.22461 C 527.8856 297.19965 527.87511 297.17571 527.86719 297.15039 C 527.87236 297.16684 527.88072 297.18305 527.88672 297.19922 C 527.88042 297.18167 527.87276 297.16425 527.86719 297.14648 C 527.86019 297.12498 527.85396 297.10363 527.84766 297.08203 L 525.47266 297.08203 L 525.42578 297.15234 L 525.25391 297.26758 L 525.05078 297.30859 L 523.99414 297.30859 L 523.79102 297.26758 L 523.61914 297.15234 L 523.50391 296.98047 L 523.46484 296.7793 L 523.46484 295.49414 L 523.50391 295.29102 L 523.61914 295.11914 L 523.79102 295.00586 L 523.99414 294.96484 L 525.05078 294.96484 L 525.25391 295.00586 L 525.42578 295.11914 L 525.47461 295.19141 L 527.78906 295.19141 C 527.81126 295.09271 527.83739 294.99603 527.86719 294.90039 C 527.86798 294.89739 527.86814 294.89362 527.86914 294.89062 C 527.90374 294.78046 527.94413 294.67199 527.98828 294.56641 C 527.99028 294.56141 527.99214 294.55588 527.99414 294.55078 C 528.00014 294.53678 528.00757 294.52367 528.01367 294.50977 C 528.05487 294.41567 528.09998 294.32431 528.14844 294.23438 C 528.14944 294.23237 528.15134 294.22761 528.15234 294.22461 L 528.15234 294.22266 L 528.1543 294.22266 L 528.1543 294.2207 C 528.59093 293.41782 529.31016 292.78884 530.17773 292.4707 L 530.17969 292.4707 L 530.18164 292.4707 L 530.18359 292.46875 C 530.18476 292.4685 530.18826 292.46906 530.18945 292.46875 L 530.19141 292.4668 C 530.59297 292.32126 531.02515 292.24219 531.47656 292.24219 z M 520.36523 294.96289 L 521.42383 294.96289 L 521.625 295.00391 L 521.79688 295.11719 L 521.91211 295.28906 L 521.95312 295.49219 L 521.95312 295.85742 L 521.98438 295.88867 A 0.94488003 0.94488003 0 0 1 522.06641 295.98047 A 0.94488003 0.94488003 0 0 1 522.13477 296.08398 A 0.94488003 0.94488003 0 0 1 522.18945 296.19531 A 0.94488003 0.94488003 0 0 1 522.20312 296.23633 A 0.94488003 0.94488003 0 0 1 522.22852 296.3125 A 0.94488003 0.94488003 0 0 1 522.26172 296.5625 L 522.26172 300.7832 L 523.23633 300.7832 L 523.23633 303.08789 L 519.39648 303.08789 L 519.39648 300.7832 L 520.37109 300.7832 L 520.37109 297.30664 L 520.36523 297.30664 L 520.16211 297.26562 L 519.99023 297.15039 L 519.87695 296.97852 L 519.83594 296.77734 L 519.83594 295.49219 L 519.87695 295.28906 L 519.99023 295.11719 L 520.16211 295.00391 L 520.36523 294.96289 z M 531.58203 297.90625 L 531.58008 297.9082 C 531.59118 297.9077 531.60208 297.90725 531.61328 297.90625 C 531.60428 297.9069 531.59494 297.90574 531.58594 297.90625 L 531.58398 297.90625 L 531.58203 297.90625 z M 512.40039 298.89453 L 512.17383 298.91797 L 511.66602 299.10742 L 511.23047 299.43359 L 510.9043 299.86914 L 510.71484 300.37891 L 510.69141 300.60352 L 510.69141 300.99023 L 513.55469 300.99023 L 513.55469 298.89453 L 512.40039 298.89453 z M 512.58008 304.375 L 516.41992 304.375 L 516.41992 306.67773 L 515.44531 306.67773 L 515.44531 311.10547 A 0.94488003 0.94488003 0 0 1 515.4375 311.22852 A 0.94488003 0.94488003 0 0 1 515.4375 311.23242 A 0.94488003 0.94488003 0 0 1 515.41406 311.34961 A 0.94488003 0.94488003 0 0 1 515.39258 311.4082 A 0.94488003 0.94488003 0 0 1 515.37305 311.46875 A 0.94488003 0.94488003 0 0 1 515.37305 311.4707 A 0.94488003 0.94488003 0 0 1 515.31836 311.58008 A 0.94488003 0.94488003 0 0 1 515.31836 311.58203 A 0.94488003 0.94488003 0 0 1 515.25 311.68164 A 0.94488003 0.94488003 0 0 1 515.24805 311.6875 A 0.94488003 0.94488003 0 0 1 515.16797 311.77539 A 0.94488003 0.94488003 0 0 1 515.16602 311.78125 L 515.11133 311.83594 L 515.11133 312.19922 L 515.07031 312.40234 L 514.95703 312.57422 L 514.78516 312.6875 L 514.58203 312.72852 L 513.52344 312.72852 L 513.32227 312.6875 L 513.15039 312.57422 L 513.03516 312.40234 L 512.99414 312.19922 L 512.99414 310.91406 L 513.03516 310.71094 L 513.15039 310.54102 L 513.32227 310.42578 L 513.52344 310.38477 L 513.55469 310.38477 L 513.55469 306.67969 L 512.58008 306.67969 L 512.58008 304.375 z M 519.39648 304.375 L 523.23633 304.375 L 523.23633 306.67773 L 522.26172 306.67773 L 522.26172 310.23242 L 522.32812 310.33203 L 522.36719 310.53516 L 522.36719 311.82031 L 522.32812 312.02148 L 522.21289 312.19336 L 522.04102 312.30859 L 521.83984 312.34766 L 520.78125 312.34766 L 520.57812 312.30859 L 520.40625 312.19336 L 520.29102 312.02148 L 520.25195 311.82031 L 520.25195 310.53516 L 520.29102 310.33203 L 520.37109 310.21289 L 520.37109 306.67773 L 519.39648 306.67773 L 519.39648 304.375 z M 503.35742 307.66211 C 505.04445 307.66211 506.47592 308.77069 506.96094 310.29883 C 506.96594 310.31353 506.96796 310.32905 506.97266 310.34375 C 506.99926 310.43135 507.02462 310.51919 507.04492 310.60938 L 509.47461 310.60938 L 509.52148 310.53906 L 509.69336 310.42383 L 509.89648 310.38281 L 510.95312 310.38281 L 511.15625 310.42383 L 511.32812 310.53906 L 511.44336 310.70898 L 511.48242 310.91211 L 511.48242 312.19727 L 511.44336 312.40039 L 511.32812 312.57227 L 511.15625 312.68555 L 510.95312 312.72656 L 509.89648 312.72656 L 509.69336 312.68555 L 509.52148 312.57227 L 509.47266 312.5 L 506.98633 312.5 C 506.52801 314.07132 505.07541 315.2207 503.35742 315.2207 C 501.2723 315.2207 499.57812 313.52653 499.57812 311.44141 C 499.57812 309.35533 501.2723 307.66211 503.35742 307.66211 z M 531.58984 307.88867 C 532.24182 307.88867 532.85506 308.05448 533.39062 308.3457 C 533.39262 308.34667 533.39644 308.34861 533.39844 308.34961 C 533.39894 308.34989 533.40305 308.35271 533.4043 308.35352 L 533.40625 308.35742 L 533.4082 308.35938 L 533.41016 308.35938 C 534.4303 308.92208 535.16361 309.94072 535.33203 311.14062 L 535.33203 311.14258 L 535.33203 311.14453 L 535.33203 311.14648 C 535.35573 311.31749 535.36914 311.49244 535.36914 311.66992 C 535.36914 313.75504 533.67592 315.44922 531.58984 315.44922 C 529.83102 315.44922 528.35002 314.24394 527.92969 312.61523 L 525.44531 312.61523 L 525.42969 312.61523 A 0.94488003 0.94488003 0 0 1 525.19141 312.58398 A 0.94488003 0.94488003 0 0 1 525.18945 312.58398 A 0.94488003 0.94488003 0 0 1 524.96875 312.49414 A 0.94488003 0.94488003 0 0 1 524.9668 312.49414 A 0.94488003 0.94488003 0 0 1 524.86719 312.42773 A 0.94488003 0.94488003 0 0 1 524.86523 312.42773 A 0.94488003 0.94488003 0 0 1 524.77539 312.34961 L 524.77344 312.34961 L 524.4082 312.34961 L 524.20703 312.31055 L 524.03516 312.19531 L 523.91992 312.02344 L 523.88086 311.82227 L 523.88086 310.53711 L 523.91992 310.33398 L 524.03516 310.16211 L 524.20703 310.04688 L 524.4082 310.00781 L 525.4668 310.00781 L 525.66992 310.04688 L 525.8418 310.16211 L 525.95703 310.33398 L 525.99609 310.53711 L 525.99609 310.72461 L 527.92969 310.72461 C 528.25643 309.45764 529.22494 308.44737 530.4668 308.06055 C 530.5851 308.02365 530.70518 307.9919 530.82812 307.9668 C 531.07401 307.9164 531.3292 307.89062 531.58984 307.89062 L 531.58984 307.88867 z " />
    <g
       id="path2"
       style="opacity:1"
       transform="matrix(0.0096,0,0,-0.0096,0,793.728)" />
    <g
       id="path3"
       style="opacity:1"
       transform="matrix(0.0096,0,0,-0.0096,0,793.728)" />
    <g
       id="path4"
       style="opacity:1"
       transform="matrix(0.0096,0,0,-0.0096,0,793.728)" />
    <g
       id="path9"
       style="opacity:1"
       transform="matrix(0.0096,0,0,-0.0096,0,793.728)" />
    <g
       id="path10"
       style="opacity:1"
       transform="matrix(0.0096,0,0,-0.0096,0,793.728)" />
    <g
       id="path12"
       style="opacity:1"
       transform="matrix(0.0096,0,0,-0.0096,0,793.728)" />
    <g
       id="path13"
       style="opacity:1"
       transform="matrix(0.0096,0,0,-0.0096,0,793.728)" />
    <g
       id="path14"
       style="opacity:1"
       transform="matrix(0.0096,0,0,-0.0096,0,793.728)" />
    <g
       id="path15"
       style="opacity:1"
       transform="matrix(0.0096,0,0,-0.0096,0,793.728)" />
    <g
       id="path16"
       style="opacity:1"
       transform="matrix(0.0096,0,0,-0.0096,0,793.728)" />
    <g
       id="path17"
       style="opacity:1"
       transform="matrix(0.0096,0,0,-0.0096,0,793.728)" />
    <g
       id="path19"
       style="opacity:1"
       transform="matrix(0.0096,0,0,-0.0096,0,793.728)" />
    <g
       id="path20"
       style="opacity:1"
       transform="matrix(0.0096,0,0,-0.0096,0,793.728)" />
    <g
       id="path21"
       style="opacity:1"
       transform="matrix(0.0096,0,0,-0.0096,0,793.728)" />
  </g>
</svg>
